<?xml version="1.0" encoding="utf-8"?>
<svg xmlns="http://www.w3.org/2000/svg" xmlns:xlink="http://www.w3.org/1999/xlink" version="1.1" 
	 id="MS-logo" viewBox="0 0 700 700" xml:space="preserve">
	<style type="text/css">
	.col1 {fill:#000000}
	.col2 {fill:#FFFFFF}
	.s-col1 {stroke:#000000}
	.s-col2 {stroke:#FFFFFF}
	.trait{stroke-width:2.5;stroke-linecap:round}
	.fin{stroke-width:0.5}
	.moyen{stroke-width:3}
	.epais{stroke-width:5}
	</style>
	<g id="logo">
		<g id="MS">
			<g id="M">
				<line id="barre1" class="s-col1 trait epais" x1="87" y1="394" x2="87" y2="95"/>
				<line id="barre2" class="s-col1 trait" x1="87" y1="137" x2="204" y2="296"/>
				<line id="barre4" class="s-col1 trait" x1="237" y1="118" x2="237" y2="518"/>
				
				<path id="barre3" class="s-col1 col2 trait moyen" d="M262.4,186.9l-87.4,104.6c-3.0,3.5,-8.2,4.0,-11.8,1.1l-1.6,-1.3c-3.5,-3.0,-4.0,-8.2,-1.1,-11.8l87.4,-104.6c3.0,-3.5,8.2,-4.0,11.8,-1.1l1.6,1.3C264.9,178.1,265.4,183.4,262.4,186.9z"/>
			<g id="rond-M">
					<path class="s-col1 col1 trait moyen" d="M87,167v-60c14,0,25,13,25,30C113,154,101,167,87,167z"/>
					<path class="s-col1 col2 trait moyen" d="M62,137c0,-17,11,-30,25,-30v60C73,167,62,154,62,137z"/>
				</g></g>
			<g id="S">
				<path class="s-col1 col1 trait fin" d="M326.5,356.9c-0.0,-1.8,-0.4,-3.7,-0.6,-5.5c-0.4,-1.8,-0.8,-3.6,-1.4,-5.4c-2.3,-7.1,-6.8,-13.3,-12.0,-18.3c-5.3,-5.0,-11.4,-8.7,-17.8,-11.8c-1.6,-0.7,-3.2,-1.5,-4.8,-2.1l-4.9,-1.8l-2.4,-0.9l-2.3,-0.8c-1.5,-0.6,-3.0,-1.2,-4.5,-1.8c-6.0,-2.5,-11.6,-5.7,-16.5,-9.6c-4.9,-3.9,-8.8,-8.8,-11.4,-14.4l-0.3,-0.5l-0.2,-0.6l-0.4,-1.1c-0.3,-0.7,-0.5,-1.4,-0.8,-2.2c-0.3,-1.5,-0.8,-3.0,-1.1,-4.5l-0.4,-2.3c-0.1,-0.8,-0.3,-1.6,-0.3,-2.3l-0.2,-2.4c-0.1,-0.8,-0.1,-1.6,-0.1,-2.4c-0.1,-6.4,1.1,-12.8,3.2,-18.8c2.1,-6.0,5.5,-11.6,10.0,-16.3c4.4,-4.7,10.1,-8.2,16.2,-10.6c6.2,-2.4,12.8,-3.5,19.5,-4.0c-3.4,-0.2,-6.8,-0.2,-10.2,0.1c-3.4,0.3,-6.8,0.9,-10.1,1.8c-6.6,1.8,-12.9,5.2,-18.2,9.9c-5.3,4.7,-9.3,10.7,-12.1,17.2c-1.4,3.2,-2.4,6.6,-3.2,10.1c-0.8,3.5,-1.2,7.0,-1.4,10.5c-0.1,0.9,-0.0,1.8,-0.0,2.7l0.0,0.5V396.9c2.5,2.3,8.8,5.2,12.0,6.3c3.2,1.1,6.6,1.9,9.9,2.4c3.4,0.6,6.8,0.9,10.2,1.0c3.4,0.1,6.9,0.0,10.3,-0.3c3.4,-0.4,6.9,-1.0,10.3,-1.8c0.8,-0.2,1.7,-0.5,2.5,-0.7c0.8,-0.3,1.7,-0.5,2.5,-0.8l2.5,-0.9l2.4,-1.1c3.2,-1.5,6.3,-3.4,9.1,-5.7l1.1,-0.8l1.0,-0.9c0.7,-0.6,1.3,-1.2,2.0,-1.9c1.2,-1.4,2.5,-2.7,3.5,-4.2c2.3,-2.9,3.9,-6.1,5.4,-9.4c1.3,-3.4,2.4,-6.8,3.0,-10.4C326.4,364.3,326.7,360.5,326.5,356.9z"/>
			</g>
		</g>
		<g id="PIANOS">
			<g id="I">
				<line class="s-col1 trait" x1="281" y1="518" x2="281" y2="460"/>
				<circle class="col1" cx="281" cy="441" r="7"/>
			</g>
			<g id="A">
				<polygon class="col1" points="357,469 327,469 337,441"/>
				<line class="s-col1 trait" x1="310" y1="518" x2="337" y2="441"/>
				<line class="s-col1 trait" x1="318" y1="415" x2="434" y2="574"/>
			</g>
			<g id="N">
				<line class="s-col1 trait" x1="406" y1="606" x2="406" y2="415"/>
				<line class="s-col1 trait" x1="395" y1="425" x2="461" y2="518"/>
				<line class="s-col1 trait" x1="462" y1="518" x2="462" y2="441"/>
			</g>
			
			<g id="O">
				<path class="s-col1 col1 trait moyen" d="M520,441v77c-17,0,-30,-17,-30,-38C489,458,503,441,520,441z"/><path class="s-col1 col2 trait moyen" d="M520,441v77c17,0,30,-17,30,-38C550,458,536,441,520,441z"/>
			</g>
			<g id="S">
				<path class="col1" d="M586.8,518.0c-1.9,0.0,-3.7,-0.1,-5.6,-0.2c-1.9,-0.2,-3.7,-0.4,-5.4,-0.6c-1.7,-0.2,-3.3,-0.5,-4.8,-0.8l-0.9,-0.2c-0.4,-0.1,-0.7,-0.5,-0.7,-0.9v-1.4c0.0,-0.6,0.5,-0.9,0.9,-0.9c0.1,0.0,0.2,0.0,0.3,0.0c1.4,0.4,2.8,0.7,4.3,1.0c3.7,0.7,8.0,1.1,12.7,1.1c3.5,0.0,6.6,-0.3,9.1,-0.9c2.7,-0.7,5.0,-1.7,6.9,-3.1c1.9,-1.5,3.4,-3.3,4.3,-5.4c0.8,-2.0,1.3,-4.3,1.3,-6.7c0.0,-2.9,-0.8,-5.5,-2.3,-7.6c-1.3,-1.9,-3.1,-3.6,-5.3,-5.0c-2.0,-1.3,-4.3,-2.6,-6.7,-3.7c-2.3,-1.0,-4.7,-2.1,-7.1,-3.1c-2.3,-1.0,-4.6,-2.2,-6.9,-3.4c-2.1,-1.1,-3.9,-2.5,-5.5,-4.0c-1.5,-1.4,-2.7,-3.1,-3.7,-5.1c-0.9,-1.9,-1.3,-4.1,-1.3,-6.8c0.0,-2.3,0.5,-4.7,1.4,-7.0c0.9,-2.2,2.2,-4.2,4.1,-6.0c1.9,-1.8,4.4,-3.2,7.4,-4.4c3.1,-1.1,6.9,-1.7,11.3,-1.7c1.1,0.0,2.4,0.1,3.8,0.2c1.4,0.1,2.8,0.3,4.2,0.5c1.4,0.2,2.9,0.5,4.3,0.8l0.6,0.1c0.4,0.1,0.7,0.5,0.7,0.9v0.9c0.0,0.6,-0.5,1.0,-0.9,1.0c-0.1,0.0,-0.1,-0.0,-0.2,-0.0c-1.2,-0.3,-2.5,-0.5,-3.7,-0.7c-3.1,-0.5,-6.1,-0.8,-9.0,-0.8c-6.6,0.0,-11.5,1.3,-14.8,3.9c-3.6,2.8,-5.4,6.6,-5.4,11.2c0.0,2.9,0.8,5.5,2.3,7.6c1.3,1.9,3.1,3.6,5.2,5.1c2.0,1.4,4.3,2.6,6.8,3.7c2.3,1.0,4.7,2.1,7.1,3.1c2.3,1.0,4.6,2.2,6.8,3.4c2.1,1.1,3.9,2.5,5.5,4.0c1.5,1.5,2.8,3.2,3.7,5.2c0.9,1.9,1.3,4.2,1.3,7.0c0.0,3.3,-0.6,6.2,-1.8,8.7c-1.2,2.4,-2.8,4.4,-5.0,6.0c-2.2,1.7,-4.9,2.9,-8.1,3.8C594.6,517.6,590.8,518.0,586.8,518.0z"/>
			</g>
			<g id="partition">
				<line id="partition-top" class="s-col1 trait fin" x1="203" y1="441" x2="636" y2="441"/>
				<line id="partition-middle" class="s-col1 trait fin" x1="214" y1="470" x2="647" y2="470"/>
				<line id="partition-bottom" class="s-col1 trait fin" x1="203" y1="518" x2="636" y2="518"/>
			</g>
		</g>
	</g>
</svg>