<?xml version="1.0" encoding="utf-8"?>
<svg xmlns="http://www.w3.org/2000/svg" xmlns:xlink="http://www.w3.org/1999/xlink" version="1.1" 
	 id="MS-logo" viewBox="-80 20 512 512" xml:space="preserve">
	<style type="text/css">
	.col1 {fill:#FFFFFF}
	.col2 {fill:#000000}
	.s-col1 {stroke:#FFFFFF}
	.s-col2 {stroke:#000000}
	.trait{stroke-width:2.5;stroke-linecap:round}
	.fin{stroke-width:0.5}
	.moyen{stroke-width:3}
	.epais{stroke-width:5}
	</style>
	<rect id="fond" x="-80" y="20" class="s-col1 col2 trait fin" width="512" height="512"/>
	<g id="logo">
		<g id="MS">
			<g id="M">
				<line id="barre1" class="s-col1 trait epais" x1="87" y1="394" x2="87" y2="95"/>
				<line id="barre2" class="s-col1 trait" x1="87" y1="137" x2="204" y2="296"/>
				<line id="barre4" class="s-col1 trait" x1="237" y1="118" x2="237" y2="518"/>
				
				<path id="barre3" class="s-col1 col2 trait moyen" d="M262.4,186.9l-87.4,104.6c-3.0,3.5,-8.2,4.0,-11.8,1.1l-1.6,-1.3c-3.5,-3.0,-4.0,-8.2,-1.1,-11.8l87.4,-104.6c3.0,-3.5,8.2,-4.0,11.8,-1.1l1.6,1.3C264.9,178.1,265.4,183.4,262.4,186.9z"/>
			<g id="rond-M">
					<path class="s-col1 col1 trait moyen" d="M87,167v-60c14,0,25,13,25,30C113,154,101,167,87,167z"/>
					<path class="s-col1 col2 trait moyen" d="M62,137c0,-17,11,-30,25,-30v60C73,167,62,154,62,137z"/>
				</g></g>
			<g id="S">
				<path class="s-col1 col1 trait fin" d="M326.5,356.9c-0.0,-1.8,-0.4,-3.7,-0.6,-5.5c-0.4,-1.8,-0.8,-3.6,-1.4,-5.4c-2.3,-7.1,-6.8,-13.3,-12.0,-18.3c-5.3,-5.0,-11.4,-8.7,-17.8,-11.8c-1.6,-0.7,-3.2,-1.5,-4.8,-2.1l-4.9,-1.8l-2.4,-0.9l-2.3,-0.8c-1.5,-0.6,-3.0,-1.2,-4.5,-1.8c-6.0,-2.5,-11.6,-5.7,-16.5,-9.6c-4.9,-3.9,-8.8,-8.8,-11.4,-14.4l-0.3,-0.5l-0.2,-0.6l-0.4,-1.1c-0.3,-0.7,-0.5,-1.4,-0.8,-2.2c-0.3,-1.5,-0.8,-3.0,-1.1,-4.5l-0.4,-2.3c-0.1,-0.8,-0.3,-1.6,-0.3,-2.3l-0.2,-2.4c-0.1,-0.8,-0.1,-1.6,-0.1,-2.4c-0.1,-6.4,1.1,-12.8,3.2,-18.8c2.1,-6.0,5.5,-11.6,10.0,-16.3c4.4,-4.7,10.1,-8.2,16.2,-10.6c6.2,-2.4,12.8,-3.5,19.5,-4.0c-3.4,-0.2,-6.8,-0.2,-10.2,0.1c-3.4,0.3,-6.8,0.9,-10.1,1.8c-6.6,1.8,-12.9,5.2,-18.2,9.9c-5.3,4.7,-9.3,10.7,-12.1,17.2c-1.4,3.2,-2.4,6.6,-3.2,10.1c-0.8,3.5,-1.2,7.0,-1.4,10.5c-0.1,0.9,-0.0,1.8,-0.0,2.7l0.0,0.5V396.9c2.5,2.3,8.8,5.2,12.0,6.3c3.2,1.1,6.6,1.9,9.9,2.4c3.4,0.6,6.8,0.9,10.2,1.0c3.4,0.1,6.9,0.0,10.3,-0.3c3.4,-0.4,6.9,-1.0,10.3,-1.8c0.8,-0.2,1.7,-0.5,2.5,-0.7c0.8,-0.3,1.7,-0.5,2.5,-0.8l2.5,-0.9l2.4,-1.1c3.2,-1.5,6.3,-3.4,9.1,-5.7l1.1,-0.8l1.0,-0.9c0.7,-0.6,1.3,-1.2,2.0,-1.9c1.2,-1.4,2.5,-2.7,3.5,-4.2c2.3,-2.9,3.9,-6.1,5.4,-9.4c1.3,-3.4,2.4,-6.8,3.0,-10.4C326.4,364.3,326.7,360.5,326.5,356.9z"/>
			</g>
		</g>
	</g>
</svg>